# 3ds Max Wavefront OBJ Exporter v0.97b - (c)2007 guruware
# File Created: 09.11.2015 13:25:21

mtllib 3d-model.mtl

#
# object The_Virtual_Pokemon__'Porygon'_001
#

v  623.2161 1375.9559 324.7105
v  634.5464 1374.4611 319.5287
v  645.1777 1375.8760 313.0147
v  654.3859 1380.1044 305.6124
v  611.9590 1380.2587 328.2069
v  661.5428 1386.8582 297.8261
v  601.5422 1387.0764 329.7796
v  666.1611 1395.6769 290.1866
v  592.6758 1395.9442 329.3215
v  667.9261 1405.9597 283.2144
v  585.9639 1406.2578 326.8637
v  666.7174 1417.0057 277.3848
v  581.8638 1417.3145 322.5739
v  662.6174 1428.0623 273.0949
v  580.6550 1428.3605 316.7442
v  655.9054 1438.3760 270.6371
v  582.4200 1438.6432 309.7720
v  647.0389 1447.2437 270.1790
v  587.0383 1447.4620 302.1325
v  636.6223 1454.0613 271.7517
v  594.1954 1454.2157 294.3462
v  625.3651 1458.3643 275.2480
v  603.4033 1458.4442 286.9438
v  614.0348 1459.8591 280.4298
v  645.1777 1375.8760 -305.2071
v  634.5464 1374.4611 -311.7212
v  623.2161 1375.9559 -316.9029
v  654.3859 1380.1044 -297.8047
v  611.9590 1380.2587 -320.3993
v  661.5428 1386.8582 -290.0185
v  601.5422 1387.0764 -321.9720
v  666.1611 1395.6769 -282.3790
v  592.6758 1395.9442 -321.5139
v  667.9261 1405.9597 -275.4068
v  585.9639 1406.2578 -319.0561
v  666.7174 1417.0057 -269.5772
v  581.8638 1417.3145 -314.7662
v  662.6174 1428.0623 -265.2873
v  580.6550 1428.3605 -308.9366
v  655.9054 1438.3760 -262.8295
v  582.4200 1438.6432 -301.9644
v  647.0389 1447.2437 -262.3714
v  587.0383 1447.4620 -294.3249
v  636.6223 1454.0613 -263.9441
v  594.1954 1454.2157 -286.5386
v  625.3651 1458.3643 -267.4405
v  603.4033 1458.4442 -279.1363
v  614.0348 1459.8591 -272.6222
# 48 vertices

vn 0.4189 0.4593 0.7834
vn 0.4189 0.4593 -0.7834
# 2 vertex normals

vt 0.0000 0.0000 0.0000
# 1 texture coords

g The_Virtual_Pokemon__'Porygon'_001
usemtl wire_224086086
s off
f 1/1/1 2/1/1 3/1/1 4/1/1 
f 5/1/1 1/1/1 4/1/1 6/1/1 
f 7/1/1 5/1/1 6/1/1 8/1/1 
f 9/1/1 7/1/1 8/1/1 10/1/1 
f 11/1/1 9/1/1 10/1/1 12/1/1 
f 13/1/1 11/1/1 12/1/1 14/1/1 
f 15/1/1 13/1/1 14/1/1 16/1/1 
f 17/1/1 15/1/1 16/1/1 18/1/1 
f 19/1/1 17/1/1 18/1/1 20/1/1 
f 21/1/1 19/1/1 20/1/1 22/1/1 
f 23/1/1 21/1/1 22/1/1 24/1/1 
f 25/1/2 26/1/2 27/1/2 28/1/2 
f 28/1/2 27/1/2 29/1/2 30/1/2 
f 30/1/2 29/1/2 31/1/2 32/1/2 
f 32/1/2 31/1/2 33/1/2 34/1/2 
f 34/1/2 33/1/2 35/1/2 36/1/2 
f 36/1/2 35/1/2 37/1/2 38/1/2 
f 38/1/2 37/1/2 39/1/2 40/1/2 
f 40/1/2 39/1/2 41/1/2 42/1/2 
f 42/1/2 41/1/2 43/1/2 44/1/2 
f 44/1/2 43/1/2 45/1/2 46/1/2 
f 46/1/2 45/1/2 47/1/2 48/1/2 
# 22 polygons

#
# object Layer0_001
#

v  479.9507 161.0168 -279.7983
v  512.2588 38.9573 -279.0088
v  507.0969 35.8766 -544.1592
v  474.7886 157.9362 -544.9482
v  -506.3459 86.8947 -525.0220
v  -543.7660 346.0473 -527.3047
v  -141.5079 546.5381 -537.4653
v  -137.7115 548.8038 -342.4526
v  0.2925 463.4622 -273.9741
v  -538.6041 349.1280 -262.1548
v  -325.2894 455.4468 -267.5430
v  -501.1841 89.9753 -259.8721
v  667.5613 692.3031 -457.5967
v  667.5613 692.3031 454.5095
v  392.7939 225.3478 131.3606
v  392.7939 225.3478 -82.9109
v  1019.8284 1080.7037 285.7441
v  1019.8284 873.5785 220.3315
v  1437.6914 844.1813 200.9844
v  1437.6914 872.4524 184.4097
v  1437.6914 900.7235 167.8352
v  1019.8284 1230.7083 197.8010
v  1437.6914 900.7235 -160.0278
v  1437.6914 844.1813 -193.1768
v  1019.8284 1080.7037 -277.9370
v  1420.2766 914.4757 -161.2766
v  1019.8284 1230.7083 -189.9939
v  1019.8284 873.5785 -212.5244
v  1437.6914 844.1813 -101.1018
v  -909.1057 190.6927 110.4604
v  -909.1057 190.6927 -82.9109
v  -653.2389 225.3478 -82.9109
v  -653.2389 225.3478 131.3606
v  -1437.6912 1664.5636 84.0557
v  -1427.3788 1669.9968 -33.8486
v  -136.5126 361.5733 -270.1274
v  -452.0809 92.3491 281.3862
v  -452.0809 92.3491 544.9485
v  579.9385 0.0000 544.9485
v  579.9385 0.0000 281.3862
v  -477.6753 418.2461 281.3862
v  -477.6753 418.2461 544.9485
v  554.3440 136.8463 544.9485
v  -53.4658 558.3941 544.9485
v  554.3440 136.8463 281.3862
v  -53.4658 558.3941 361.8398
v  114.1587 442.1376 281.3862
v  -405.3585 442.1376 281.3862
v  438.9114 1030.3003 185.5989
v  349.2026 895.3879 292.9348
v  382.7241 1051.5596 168.6848
v  349.2026 895.6521 -275.7383
v  438.9114 1030.3003 -155.3198
v  382.3779 1051.6904 -136.1904
v  -1402.2074 1668.8162 87.3555
v  -1391.8950 1674.2495 -30.5493
v  -891.7545 693.2052 -66.0029
v  -104.4360 307.1030 281.3862
v  -883.4264 692.3031 454.5095
v  -899.4290 692.3031 -457.5967
v  295.2366 1084.6619 -106.7046
v  61.3726 1173.1477 -330.2144
v  815.0435 887.9854 -222.0059
v  815.0435 887.9854 229.8132
v  61.3726 1173.1477 338.0217
v  296.4644 1084.1973 142.8909
v  716.3970 1252.4546 347.2925
v  795.8757 1407.5629 213.8613
v  323.3127 1634.3783 130.5603
v  79.0432 1388.1804 405.5059
v  412.9658 1424.2054 408.8411
v  571.9231 1584.4174 229.9216
v  323.3127 1634.3783 -122.7529
v  571.9231 1584.4174 -222.1143
v  412.9658 1424.2054 -401.0337
v  79.0432 1388.1804 -397.6987
v  143.8804 1453.5294 -324.7188
v  716.3970 1252.4546 -339.4849
v  820.4197 1388.1804 -204.2939
v  795.8757 1407.5629 -206.0542
v  692.8408 1488.9291 169.4246
v  692.8408 1488.9291 -161.6172
v  535.8406 1260.3368 -346.3232
v  535.8406 1260.3368 354.1304
v  -673.1565 941.7847 -234.4810
v  -664.5176 941.7847 257.9160
v  645.1775 1375.8760 313.0146
v  634.5461 1374.4611 319.5286
v  654.3857 1380.1044 305.6123
v  661.5425 1386.8582 297.8259
v  666.1609 1395.6769 290.1865
v  667.9260 1405.9597 283.2141
v  666.7173 1417.0057 277.3848
v  662.6172 1428.0623 273.0947
v  655.9050 1438.3760 270.6370
v  647.0388 1447.2437 270.1790
v  636.6221 1454.0613 271.7517
v  625.3650 1458.3643 275.2480
v  614.0347 1459.8591 280.4299
v  603.4031 1458.4442 286.9438
v  594.1951 1454.2157 294.3459
v  587.0383 1447.4620 302.1323
v  582.4197 1438.6432 309.7717
v  580.6548 1428.3605 316.7439
v  581.8635 1417.3145 322.5737
v  585.9636 1406.2578 326.8635
v  592.6758 1395.9442 329.3213
v  601.5420 1387.0764 329.7795
v  611.9587 1380.2587 328.2068
v  623.2158 1375.9559 324.7104
v  623.2158 1375.9559 -316.9033
v  634.5461 1374.4611 -311.7212
v  611.9587 1380.2587 -320.3994
v  601.5420 1387.0764 -321.9722
v  592.6758 1395.9442 -321.5142
v  585.9636 1406.2578 -319.0562
v  581.8635 1417.3145 -314.7666
v  580.6548 1428.3605 -308.9365
v  582.4197 1438.6432 -301.9644
v  587.0383 1447.4620 -294.3252
v  594.1951 1454.2157 -286.5386
v  603.4031 1458.4442 -279.1362
v  614.0347 1459.8591 -272.6226
v  625.3650 1458.3643 -267.4404
v  636.6221 1454.0613 -263.9443
v  647.0388 1447.2437 -262.3716
v  655.9050 1438.3760 -262.8296
v  662.6172 1428.0623 -265.2871
v  666.7173 1417.0057 -269.5771
v  667.9260 1405.9597 -275.4067
v  666.1609 1395.6769 -282.3794
v  661.5425 1386.8582 -290.0186
v  654.3857 1380.1044 -297.8052
v  645.1775 1375.8760 -305.2075
# 134 vertices

vn 0.9665 0.2557 -0.0218
vn -0.0195 -0.0116 -0.9997
vn 0.5331 0.8458 -0.0202
vn -0.4461 0.8950 -0.0017
vn -0.9895 -0.1427 0.0209
vn -0.0500 -0.9987 0.0126
vn 0.8619 -0.5071 -0.0000
vn 0.0230 -0.3011 0.9533
vn 0.4189 0.4593 0.7834
vn 0.4189 0.4593 -0.7834
vn 0.0230 -0.3011 -0.9533
vn 1.0000 -0.0000 0.0000
vn -0.0702 -0.9975 -0.0000
vn 0.1342 -0.9910 -0.0000
vn -0.9413 -0.3376 -0.0000
vn -0.9403 -0.3262 -0.0973
vn 0.0195 0.0116 0.9997
vn 0.6198 0.7848 0.0000
vn 0.0891 0.9960 0.0000
vn 0.9969 0.0783 0.0000
vn 0.0000 0.0000 -1.0000
vn -0.9830 -0.1838 0.0000
vn -0.5699 -0.8217 0.0000
vn 0.3137 -0.9495 -0.0000
vn -0.0000 -0.6226 -0.7825
vn 0.0000 -0.6666 0.7454
vn -0.8283 -0.5603 0.0000
vn 0.1221 -0.9919 -0.0350
vn -0.0849 -0.0627 0.9944
vn 0.0046 -0.0338 0.9994
vn -0.8821 -0.4607 -0.0984
vn -0.8909 -0.4542 -0.0000
vn 0.0799 0.0111 -0.9967
vn 0.0908 0.0147 -0.9958
vn 0.0000 -0.0000 1.0000
vn 0.0000 -0.5691 0.8223
vn 0.0000 -1.0000 -0.0000
vn -0.0000 -0.6258 -0.7800
vn -0.3539 -0.9353 -0.0000
vn -0.0904 0.7805 0.6186
vn 0.1970 0.9804 0.0000
vn -0.0904 0.7805 -0.6186
vn -0.7099 0.7043 -0.0000
vn -0.9966 0.0819 -0.0000
vn -0.8925 -0.4508 0.0157
vn -0.8846 -0.4664 0.0000
vn 0.7465 -0.6653 -0.0131
vn 0.1463 -0.9892 -0.0026
vn -0.0014 -0.6224 -0.7827
vn -0.0011 -0.6183 -0.7859
vn 0.0000 1.0000 -0.0000
vn -0.3539 -0.9353 0.0000
vn 0.0000 -0.6258 -0.7800
vn 1.0000 0.0000 0.0000
# 54 vertex normals

vt 0.0000 0.0000 0.0000
# 1 texture coords

g Layer0_001
usemtl wire_087224198
s off
f 49/2/3 50/2/3 51/2/3 52/2/3 
f 52/2/4 51/2/4 53/2/4 54/2/4 
f 52/2/4 54/2/4 55/2/4 
f 52/2/5 55/2/5 56/2/5 57/2/5 
f 52/2/5 57/2/5 49/2/5 
f 55/2/6 54/2/6 58/2/6 59/2/6 
f 55/2/6 59/2/6 56/2/6 
f 53/2/7 60/2/7 58/2/7 54/2/7 
f 60/2/8 53/2/8 51/2/8 50/2/8 
f 61/2/9 62/2/9 63/2/9 64/2/9 
f 65/2/10 66/2/10 67/2/10 
f 65/2/11 67/2/11 68/2/11 69/2/11 
f 65/2/11 69/2/11 70/2/11 
f 71/2/12 72/2/12 73/2/12 74/2/12 
f 74/2/12 73/2/12 75/2/12 
f 73/2/13 72/2/13 76/2/13 
f 68/2/14 67/2/14 77/2/14 69/2/14 
f 71/2/14 69/2/14 77/2/14 72/2/14 
f 67/2/15 66/2/15 76/2/15 77/2/15 
f 77/2/15 76/2/15 72/2/15 
f 78/2/16 79/2/16 80/2/16 81/2/16 
f 79/2/17 78/2/17 82/2/17 
f 79/2/18 82/2/18 83/2/18 
f 59/2/19 58/2/19 60/2/19 
f 57/2/19 50/2/19 49/2/19 
f 84/2/19 60/2/19 50/2/19 
f 59/2/19 60/2/19 84/2/19 
f 57/2/19 84/2/19 50/2/19 
f 57/2/19 59/2/19 84/2/19 
f 75/2/20 70/2/20 69/2/20 74/2/20 
f 74/2/20 69/2/20 71/2/20 
f 85/2/21 86/2/21 87/2/21 88/2/21 
f 89/2/22 90/2/22 86/2/22 85/2/22 
f 91/2/23 87/2/23 86/2/23 90/2/23 
f 91/2/23 90/2/23 92/2/23 
f 87/2/24 91/2/24 93/2/24 88/2/24 
f 92/2/25 94/2/25 95/2/25 91/2/25 
f 91/2/25 95/2/25 93/2/25 
f 92/2/26 90/2/26 89/2/26 96/2/26 
f 92/2/26 96/2/26 94/2/26 
f 97/2/27 62/2/27 98/2/27 99/2/27 
f 100/2/28 61/2/28 101/2/28 102/2/28 
f 61/2/29 62/2/29 97/2/29 101/2/29 
f 103/2/30 82/2/30 83/2/30 104/2/30 
f 104/2/31 83/2/31 79/2/31 
f 104/2/32 79/2/32 80/2/32 105/2/32 
f 104/2/33 81/2/33 103/2/33 
f 105/2/34 80/2/34 81/2/34 104/2/34 
f 103/2/35 81/2/35 78/2/35 
f 103/2/36 78/2/36 82/2/36 
f 95/2/37 88/2/37 93/2/37 
f 96/2/37 89/2/37 85/2/37 
f 106/2/37 85/2/37 88/2/37 
f 96/2/37 85/2/37 106/2/37 
f 95/2/37 106/2/37 88/2/37 
f 95/2/37 96/2/37 106/2/37 
f 95/2/38 81/2/38 63/2/38 62/2/38 
f 94/2/38 95/2/38 62/2/38 107/2/38 
f 96/2/38 94/2/38 107/2/38 81/2/38 
f 81/2/38 95/2/38 96/2/38 
f 81/2/39 80/2/39 64/2/39 63/2/39 
f 59/2/40 64/2/40 80/2/40 108/2/40 
f 56/2/40 59/2/40 108/2/40 61/2/40 
f 57/2/40 56/2/40 61/2/40 64/2/40 
f 57/2/40 64/2/40 59/2/40 
f 101/2/41 109/2/41 110/2/41 111/2/41 
f 97/2/41 101/2/41 111/2/41 112/2/41 
f 97/2/41 112/2/41 113/2/41 114/2/41 
f 114/2/41 113/2/41 110/2/41 109/2/41 
f 97/2/41 114/2/41 99/2/41 
f 109/2/41 101/2/41 102/2/41 
f 115/2/11 65/2/11 70/2/11 116/2/11 
f 117/2/42 118/2/42 119/2/42 120/2/42 
f 121/2/43 117/2/43 120/2/43 122/2/43 
f 123/2/44 124/2/44 125/2/44 121/2/44 
f 123/2/44 121/2/44 122/2/44 
f 75/2/12 73/2/12 126/2/12 127/2/12 
f 127/2/12 126/2/12 128/2/12 
f 122/2/20 120/2/20 129/2/20 130/2/20 
f 130/2/20 129/2/20 116/2/20 128/2/20 
f 128/2/20 116/2/20 70/2/20 127/2/20 
f 127/2/20 70/2/20 75/2/20 
f 73/2/13 76/2/13 111/2/13 110/2/13 
f 126/2/13 73/2/13 110/2/13 131/2/13 
f 131/2/13 110/2/13 124/2/13 123/2/13 
f 124/2/45 118/2/45 117/2/45 121/2/45 
f 124/2/45 121/2/45 125/2/45 
f 113/2/46 118/2/46 124/2/46 110/2/46 
f 112/2/15 111/2/15 76/2/15 66/2/15 
f 112/2/10 66/2/10 65/2/10 113/2/10 
f 113/2/10 65/2/10 115/2/10 132/2/10 
f 118/2/10 113/2/10 132/2/10 119/2/10 
f 108/2/47 81/2/47 107/2/47 
f 108/2/48 80/2/48 81/2/48 
f 108/2/28 61/2/28 100/2/28 133/2/28 
f 133/2/28 100/2/28 102/2/28 109/2/28 
f 134/2/49 107/2/49 108/2/49 133/2/49 
f 134/2/50 133/2/50 109/2/50 114/2/50 
f 99/2/51 98/2/51 134/2/51 114/2/51 
f 98/2/27 62/2/27 107/2/27 
f 134/2/52 98/2/52 107/2/52 
f 61/2/53 108/2/53 107/2/53 62/2/53 
f 114/2/54 109/2/54 102/2/54 99/2/54 
f 99/2/54 102/2/54 101/2/54 97/2/54 
f 56/2/55 57/2/55 59/2/55 
f 94/2/38 96/2/38 95/2/38 
f 119/2/10 132/2/10 115/2/10 
f 135/2/11 136/2/11 115/2/11 116/2/11 
f 137/2/11 135/2/11 116/2/11 138/2/11 
f 139/2/11 138/2/11 116/2/11 140/2/11 
f 141/2/11 140/2/11 116/2/11 142/2/11 
f 142/2/11 116/2/11 120/2/11 143/2/11 
f 144/2/11 143/2/11 120/2/11 145/2/11 
f 146/2/11 145/2/11 120/2/11 147/2/11 
f 148/2/11 147/2/11 120/2/11 149/2/11 
f 150/2/11 149/2/11 120/2/11 151/2/11 
f 152/2/11 151/2/11 120/2/11 119/2/11 
f 153/2/11 152/2/11 119/2/11 154/2/11 
f 155/2/11 154/2/11 119/2/11 156/2/11 
f 157/2/11 156/2/11 119/2/11 158/2/11 
f 158/2/11 119/2/11 115/2/11 136/2/11 
f 116/2/20 129/2/20 120/2/20 
f 128/2/20 122/2/20 130/2/20 
f 159/2/12 160/2/12 126/2/12 123/2/12 
f 161/2/12 159/2/12 123/2/12 162/2/12 
f 163/2/12 162/2/12 123/2/12 164/2/12 
f 165/2/12 164/2/12 123/2/12 166/2/12 
f 166/2/12 123/2/12 122/2/12 167/2/12 
f 168/2/12 167/2/12 122/2/12 169/2/12 
f 170/2/12 169/2/12 122/2/12 171/2/12 
f 172/2/12 171/2/12 122/2/12 173/2/12 
f 174/2/12 173/2/12 122/2/12 175/2/12 
f 176/2/12 175/2/12 122/2/12 128/2/12 
f 177/2/12 176/2/12 128/2/12 178/2/12 
f 179/2/12 178/2/12 128/2/12 180/2/12 
f 181/2/12 180/2/12 128/2/12 182/2/12 
f 182/2/12 128/2/12 126/2/12 160/2/12 
f 123/2/13 126/2/13 131/2/13 
f 70/2/56 65/2/56 66/2/56 76/2/56 
f 75/2/56 70/2/56 76/2/56 73/2/56 
# 92 polygons - 48 triangles

